<svg width="773" height="572" viewBox="0 0 773 572" fill="none" xmlns="http://www.w3.org/2000/svg">
<path d="M164 270.233H115.867C120.133 269.333 123.5 267.5 126.233 264.433C128.967 261.4 130.2 257.733 130.2 253.767V18.2333L81.7333 227.267L71.6667 270.233L70.7667 265.967L16.2333 31.6667V255C16.2333 258.967 17.4667 262.3 19.9 265.067C22.3333 267.8 25.4 269.333 29.3333 270.233H1C4.96667 269.633 8.00001 267.8 10.4333 265.067C12.8667 262.333 14.1 258.967 14.1 255V25.2667C14.1 24.3667 14.1 23.1333 13.8 22.2333C13.5 19.5 12.2667 17.3666 10.4333 15.2333C8.00001 12.5 4.93333 10.6667 1 10.0667H31.1667L80.5333 223.067L130.2 10.0667H164.033C159.767 10.6667 156.4 12.5 153.667 15.5667C150.933 18.6 149.7 22.2666 149.7 26.2333V253.833C149.7 257.8 150.933 261.467 153.667 264.8C156.4 267.5 159.733 269.3 164 270.233Z" fill="white" stroke="white" stroke-width="4" stroke-miterlimit="10"/>
<path d="M245.967 270.233C249.333 269.633 252.367 268.1 254.5 265.367C256.633 262.933 257.867 259.867 257.867 256.533C257.867 255.633 257.867 255 257.567 254.1L246.6 192.867C244.767 184.333 242.033 177.033 238.367 170.633C234.7 164.233 231.367 159.967 228.6 157.533C224.633 154.167 220.367 152.667 215.8 152.667C210 152.667 204.833 155.1 199.667 159.667C194.5 164.533 191.133 170.933 189.6 178.567L179.833 231.533L178.933 235.8L175.567 255.3C175.267 255.6 175.267 256.2 175.267 256.533C175.267 256.867 175.267 257.433 175.267 257.767C175.267 260.8 176.167 263.567 178.3 265.7C180.433 268.133 182.867 269.667 185.933 270.267H157.9C166.433 268.433 171.6 263.267 173.433 255.033L177.4 234.933L178 230.967L213.633 37.5C214.233 33.5333 214.533 29.8666 214.533 27.1333C214.533 23.7666 214.233 20.7333 213.933 18.6C213.333 16.4666 212.7 14.6333 212.1 13.4333C211.2 12.2 210.567 11.3 209.967 10.7C209.667 10.7 209.667 10.4 209.367 10.4L209.067 10.1H233.133L277.3 254.167C278.2 258.433 280.033 262.1 283.1 264.833C286.133 267.867 289.8 269.7 293.767 270.333H245.967V270.233ZM193.867 155.367C196 152.633 198.433 150.8 201.5 149.567C204.533 148.667 207.6 148.033 210.933 148.033C215.2 148.033 218.867 148.933 222.2 150.467C227.367 153.2 231.633 156.867 234.7 161.433C237.733 166 240.2 170.567 242 174.833L243.833 178.5L217.033 29.8L193.867 155.367Z" fill="white" stroke="white" stroke-width="4" stroke-miterlimit="10"/>
<path d="M345.3 10C341.033 10.6 337.667 12.4333 334.933 15.5C332.2 18.5333 330.967 22.2 330.967 26.1667V227.567C330.967 239.433 326.7 249.5 318.467 257.733C310.233 265.967 300.2 270.233 288.3 270.233H286.167C293.467 269.333 299.567 265.967 304.133 260.167C309 254.067 311.433 246.167 311.433 236.7V26.1667C311.433 22.2 310.2 18.5333 307.467 15.5C304.733 12.4667 301.367 10.6333 297.1 10H345.3Z" fill="white" stroke="white" stroke-width="4" stroke-miterlimit="10"/>
<path d="M391.6 10C387.633 10.6 384.3 12.4333 381.533 15.5C378.8 18.5333 377.567 22.2 377.567 26.1667V253.767C377.567 257.733 378.8 261.4 381.533 264.433C384.267 267.467 387.633 269.3 391.6 270.233H343.767C348.033 269.333 351.4 267.5 354.133 264.433C356.867 261.4 358.1 257.733 358.1 253.767V26.1667C358.1 22.2 356.867 18.5333 354.133 15.5C351.4 12.4667 348.033 10.6333 343.767 10H391.6Z" fill="white" stroke="white" stroke-width="4" stroke-miterlimit="10"/>
<path d="M458.333 11.8333V253.767C458.333 258.033 459.867 261.7 462.3 264.733C464.733 267.467 468.4 269.6 472.367 270.233H424.533C432.767 269 438.867 262 438.867 253.767V11.8333H428.5C405.967 11.8333 389.5 26.7667 384 50.5333L387.667 10H509.533L512.9 50.5333C507.4 26.7667 490.967 11.8333 468.733 11.8333H458.333Z" fill="white" stroke="white" stroke-width="4" stroke-miterlimit="10"/>
<path d="M581.133 270.233C584.5 269.633 587.533 268.1 589.667 265.367C591.8 262.933 593.033 259.867 593.033 256.533C593.033 255.633 593.033 255 592.733 254.1L581.767 192.867C579.933 184.333 577.2 177.033 573.533 170.633C569.867 164.233 566.533 159.967 563.767 157.533C559.8 154.167 555.533 152.667 550.967 152.667C545.167 152.667 540 155.1 534.833 159.667C529.667 164.533 526.3 170.933 524.767 178.567L515 231.6L514.1 235.867L510.733 255.367C510.433 255.667 510.433 256.267 510.433 256.6C510.433 256.933 510.433 257.5 510.433 257.833C510.433 260.867 511.333 263.633 513.467 265.767C515.6 268.2 518.033 269.733 521.1 270.333H493.067C501.6 268.5 506.767 263.333 508.6 255.1L512.567 235L513.167 231.033L548.8 37.5667C549.4 33.6 549.7 29.9333 549.7 27.2C549.7 23.8333 549.4 20.8 549.1 18.6667C548.5 16.5334 547.867 14.7 547.267 13.5C546.367 12.2667 545.733 11.3667 545.133 10.7667C544.833 10.7667 544.833 10.4667 544.533 10.4667L544.233 10.1667H568.3L612.467 254.233C613.367 258.5 615.2 262.167 618.267 264.9C621.3 267.933 624.967 269.767 628.933 270.4H581.133V270.233ZM529.033 155.367C531.167 152.633 533.6 150.8 536.667 149.567C539.7 148.667 542.767 148.033 546.1 148.033C550.367 148.033 554.033 148.933 557.367 150.467C562.533 153.2 566.8 156.867 569.867 161.433C572.933 166 575.367 170.567 577.167 174.833L579 178.5L552.2 29.8L529.033 155.367Z" fill="white" stroke="white" stroke-width="4" stroke-miterlimit="10"/>
<path d="M164 562.333H115.867C120.133 561.433 123.5 559.6 126.233 556.533C128.967 553.5 130.2 549.833 130.2 545.867V310.333L81.7333 519.367L71.6667 562.333L70.7667 558.067L16.2333 323.767V547.1C16.2333 551.067 17.4667 554.4 19.9 557.167C22.3333 559.9 25.4 561.433 29.3333 562.333H1C4.96667 561.733 8.00001 559.9 10.4333 557.167C12.8667 554.433 14.1 551.067 14.1 547.1V317.367C14.1 316.467 14.1 315.233 13.8 314.333C13.5 311.6 12.2667 309.467 10.4333 307.333C8.00001 304.6 4.93333 302.767 1 302.167H31.1667L80.5333 515.167L130.2 302.167H164.033C159.767 302.767 156.4 304.6 153.667 307.667C150.933 310.7 149.7 314.367 149.7 318.333V545.867C149.7 549.833 150.933 553.5 153.667 556.833C156.4 559.567 159.733 561.4 164 562.333Z" fill="white" stroke="white" stroke-width="4" stroke-miterlimit="10"/>
<path d="M259.367 318.867C269.133 330.733 277.033 346.6 282.833 366.4C288.633 386.2 291.367 408.433 291.367 432.533C291.367 456.6 288.633 478.533 282.833 498.333C277.033 518.133 269.133 533.967 259.367 545.867C249.6 557.733 238.967 563.833 227.067 563.833C215.167 563.833 204.2 557.733 194.467 545.867C184.7 533.967 177.1 518.133 171.3 498.333C165.5 478.533 162.467 456.6 162.467 432.533C162.467 408.467 165.5 386.233 171.3 366.4C177.1 346.6 184.7 330.767 194.467 318.867C204.233 307 215.2 301.2 227.067 301.2C238.967 301.2 249.633 307 259.367 318.867ZM258.467 523.633C267.3 498.333 271.867 468.167 271.867 432.533C271.867 396.9 267.3 366.1 258.467 340.833C249.333 315.533 238.967 303.067 227.067 303.067C215.167 303.067 204.533 315.567 195.667 340.833C186.533 366.133 181.967 396.9 181.967 432.533C181.967 468.167 186.533 498.333 195.667 523.633C204.5 548.933 215.167 561.733 227.067 561.733C238.967 561.7 249.3 548.9 258.467 523.633Z" fill="white" stroke="white" stroke-width="4" stroke-miterlimit="10"/>
<path d="M406.533 552.567C408.667 557.733 412.633 561.1 418.433 562.333H389.167L304.767 320.4V547.1C304.767 551.067 306 554.4 308.433 557.167C310.867 559.9 313.933 561.733 317.867 562.333H289.833C293.8 561.733 296.833 559.9 299.267 557.167C301.7 554.433 302.933 551.067 302.933 547.1V317.367C302.933 315.833 302.633 314.633 302.333 313.1L301.733 311.567C299.6 306.4 295.633 303.033 289.833 302.133H319.1L403.5 544.067V317.367C403.5 313.4 402.267 310.067 399.833 307.3C397.4 304.567 394.333 302.733 390.4 302.133H418.433C414.467 302.733 411.433 304.567 409 307.3C406.567 310.033 405.333 313.4 405.333 317.367V547.1C405.333 548.933 405.633 550.767 406.233 552.267L406.533 552.567Z" fill="white" stroke="white" stroke-width="4" stroke-miterlimit="10"/>
<path d="M472.967 302.1C490.933 302.1 505.567 307.9 516.233 319.467C526.9 331.333 534.5 346.9 539.1 366.7C543.667 386.5 546.1 408.133 546.1 432.2C546.1 448.333 544.867 463.9 542.133 479.433C539.4 494.967 534.833 509 529.033 521.467C522.933 533.967 515.333 543.7 506.167 551.033C497.033 558.667 486.067 562.3 473.267 562.3H417.2C421.167 561.7 424.5 559.867 427.267 556.8C430 553.767 431.233 550.1 431.233 546.133V318.533C431.233 314.267 430 310.6 427.267 307.567C424.533 304.533 421.167 302.7 417.2 302.067H472.967V302.1ZM466.567 560.5C479.667 560.5 490.033 556.233 498.267 547.7C506.2 539.467 512.267 528.5 516.533 515.4C520.5 502.3 523.233 488.6 524.767 473.667C526 458.733 526.6 445.033 526.6 432.233C526.6 417.3 526 402.067 524.767 386.833C523.233 371.6 520.5 357.9 516.533 345.4C512.267 332.9 506.167 322.867 498.567 315.233C490.633 307.6 480.3 303.967 467.5 303.967H465.667C461.7 303.967 458.033 305.2 455.3 307.933C452.567 310.667 451.033 314.333 450.733 318.3V546.2C451.033 550.167 452.567 553.5 455.3 556.267C458.033 559 461.7 560.533 465.667 560.533H466.567V560.5Z" fill="white" stroke="white" stroke-width="4" stroke-miterlimit="10"/>
<path d="M626.533 562.333C629.9 561.733 632.933 560.2 635.067 557.467C637.2 555.033 638.433 551.967 638.433 548.633C638.433 547.733 638.433 547.1 638.133 546.2L627.167 484.967C625.333 476.433 622.6 469.133 618.933 462.733C615.267 456.333 611.933 452.067 609.167 449.633C605.2 446.267 600.933 444.767 596.367 444.767C590.567 444.767 585.4 447.2 580.233 451.767C575.067 456.633 571.7 463.033 570.167 470.667L560.4 523.7L559.5 527.967L556.133 547.467C555.833 547.767 555.833 548.367 555.833 548.7C555.833 549.033 555.833 549.6 555.833 549.933C555.833 552.967 556.733 555.733 558.867 557.867C561 560.3 563.433 561.833 566.5 562.433H538.467C547 560.6 552.167 555.433 554 547.2L557.967 527.1L558.567 523.133L594.2 329.667C594.8 325.7 595.1 322.033 595.1 319.3C595.1 315.933 594.8 312.9 594.5 310.767C593.9 308.633 593.267 306.8 592.667 305.6C591.767 304.367 591.133 303.467 590.533 302.867C590.233 302.867 590.233 302.567 589.933 302.567L589.633 302.267H613.7L657.867 546.333C658.767 550.6 660.6 554.267 663.667 557C666.7 560.033 670.367 561.867 674.333 562.5H626.533V562.333ZM574.433 447.467C576.567 444.733 579 442.9 582.067 441.667C585.1 440.767 588.167 440.133 591.5 440.133C595.767 440.133 599.433 441.033 602.767 442.567C607.933 445.3 612.2 448.967 615.267 453.533C618.3 458.1 620.767 462.667 622.567 466.933L624.4 470.6L597.6 321.9L574.433 447.467Z" fill="white" stroke="white" stroke-width="4" stroke-miterlimit="10"/>
<path d="M772.467 302.1C764.533 303.333 757.833 309.1 755.4 316.733L719.433 431.6V545.867C719.433 550.133 720.967 553.8 723.4 556.833C726.133 559.567 729.5 561.7 733.767 562.333H685.633C693.867 561.1 699.967 554.1 699.967 545.867V434.333L662.8 316.733C661.567 313.067 659.433 309.433 656.4 306.967C653.367 304.233 649.7 302.7 645.433 302.1H693.567C687.167 302.7 682.9 308.2 682.9 313.967C682.9 315.2 683.2 316.4 683.5 317.633L718.533 428.233L753.567 316.1C753.867 315.2 753.867 313.967 753.867 313.067C753.867 307.9 750.2 303 744.433 302.1H772.467Z" fill="white" stroke="white" stroke-width="4" stroke-miterlimit="10"/>
</svg>
